<?xml version="1.0" encoding="UTF-8" standalone="no"?>
<!-- Created with Inkscape (http://www.inkscape.org/) -->

<svg
   viewBox="0 0 97.960542 56.237123"
   version="1.0"
   sodipodi:docname="fig1.svg"
   inkscape:version="1.2.2 (732a01da63, 2022-12-09)"
   sodipodi:version="0.32"
   id="svg2"
   height="212.54976"
   width="370.24457"
   xmlns:inkscape="http://www.inkscape.org/namespaces/inkscape"
   xmlns:sodipodi="http://sodipodi.sourceforge.net/DTD/sodipodi-0.dtd"
   xmlns="http://www.w3.org/2000/svg"
   xmlns:svg="http://www.w3.org/2000/svg"
   xmlns:rdf="http://www.w3.org/1999/02/22-rdf-syntax-ns#"
   xmlns:cc="http://creativecommons.org/ns#"
   xmlns:dc="http://purl.org/dc/elements/1.1/">
  <defs
     id="defs4">
    <marker
       style="overflow:visible"
       id="marker11408"
       refX="0"
       refY="0"
       orient="auto-start-reverse"
       inkscape:stockid="Arrow1L"
       markerWidth="8.75"
       markerHeight="5"
       viewBox="0 0 8.75 5"
       inkscape:isstock="true"
       inkscape:collect="always"
       preserveAspectRatio="xMidYMid">
      <path
         style="fill:context-stroke;fill-rule:evenodd;stroke:none"
         d="M 0,0 5,-5 -12.5,0 5,5 Z"
         id="path11406"
         transform="scale(-0.5)" />
    </marker>
    <marker
       style="overflow:visible"
       id="marker9096"
       refX="0"
       refY="0"
       orient="auto-start-reverse"
       inkscape:stockid="Arrow1L"
       markerWidth="8.75"
       markerHeight="5"
       viewBox="0 0 8.75 5"
       inkscape:isstock="true"
       inkscape:collect="always"
       preserveAspectRatio="xMidYMid">
      <path
         style="fill:context-stroke;fill-rule:evenodd;stroke:none"
         d="M 0,0 5,-5 -12.5,0 5,5 Z"
         id="path9094"
         transform="scale(-0.5)" />
    </marker>
    <marker
       style="overflow:visible"
       id="marker9036"
       refX="0"
       refY="0"
       orient="auto-start-reverse"
       inkscape:stockid="Arrow1L"
       markerWidth="8.75"
       markerHeight="5"
       viewBox="0 0 8.75 5"
       inkscape:isstock="true"
       inkscape:collect="always"
       preserveAspectRatio="xMidYMid">
      <path
         style="fill:context-stroke;fill-rule:evenodd;stroke:none"
         d="M 0,0 5,-5 -12.5,0 5,5 Z"
         id="path9034"
         transform="scale(-0.5)" />
    </marker>
    <marker
       style="overflow:visible"
       id="Arrow1L"
       refX="0"
       refY="0"
       orient="auto-start-reverse"
       inkscape:stockid="Arrow1L"
       markerWidth="8.75"
       markerHeight="5"
       viewBox="0 0 8.75 5"
       inkscape:isstock="true"
       inkscape:collect="always"
       preserveAspectRatio="xMidYMid">
      <path
         style="fill:context-stroke;fill-rule:evenodd;stroke:none"
         d="M 0,0 5,-5 -12.5,0 5,5 Z"
         id="arrow1L"
         transform="scale(-0.5)" />
    </marker>
    <clipPath
       id="clipPath2971">
      <path
         clip-rule="nonzero"
         d="M 0,0 H 5 V 3.402344 H 0 Z m 0,0"
         id="path2372" />
    </clipPath>
    <clipPath
       id="clipPath4269">
      <path
         clip-rule="nonzero"
         d="M 0,0 H 7.875 V 6.808594 H 0 Z m 0,0"
         id="path1948" />
    </clipPath>
    <clipPath
       id="clipPath9956">
      <path
         clip-rule="nonzero"
         d="M 0,0 H 15 V 14.117188 H 0 Z m 0,0"
         id="path4826" />
    </clipPath>
    <clipPath
       id="clipPath1918">
      <path
         clip-rule="nonzero"
         d="M 0,0 H 11 V 9.804688 H 0 Z m 0,0"
         id="path2926" />
    </clipPath>
    <clipPath
       id="clipPath4476">
      <path
         clip-rule="nonzero"
         d="M 0,0 H 7.980469 V 6.175781 H 0 Z m 0,0"
         id="path1300" />
    </clipPath>
    <clipPath
       id="clipPath5928">
      <path
         clip-rule="nonzero"
         d="M 2,0 H 6.9375 V 3 H 2 Z m 0,0"
         id="path7846" />
    </clipPath>
    <clipPath
       id="clipPath9359">
      <path
         clip-rule="nonzero"
         d="M 0,3 H 6.9375 V 13.746094 H 0 Z m 0,0"
         id="path3122" />
    </clipPath>
    <clipPath
       id="clipPath2504">
      <path
         clip-rule="nonzero"
         d="M 2,0 H 6.722656 V 3 H 2 Z m 0,0"
         id="path852" />
    </clipPath>
    <clipPath
       id="clipPath5839">
      <path
         clip-rule="nonzero"
         d="M 0,3 H 6.722656 V 9.964844 H 0 Z m 0,0"
         id="path2039" />
    </clipPath>
    <clipPath
       id="clipPath9524">
      <path
         clip-rule="nonzero"
         d="M 0,0 H 6.722656 V 6.175781 H 0 Z m 0,0"
         id="path255" />
    </clipPath>
  </defs>
  <sodipodi:namedview
     id="base"
     pagecolor="#ffffff"
     bordercolor="#000000"
     borderopacity="0.3"
     inkscape:pageopacity="0.0"
     inkscape:pageshadow="2"
     inkscape:zoom="5.1799538"
     inkscape:cx="229.05609"
     inkscape:cy="81.178329"
     inkscape:document-units="mm"
     inkscape:current-layer="layer1"
     inkscape:window-width="1920"
     inkscape:window-height="1058"
     inkscape:window-x="-6"
     inkscape:window-y="-6"
     width="12.8cm"
     height="9.6cm"
     units="cm"
     showgrid="true"
     grid_units="mm"
     inkscape:object-paths="false"
     inkscape:grid-points="true"
     inkscape:grid-bbox="true"
     inkscape:guide-points="true"
     showguides="true"
     inkscape:guide-bbox="true"
     inkscape:showpageshadow="2"
     inkscape:pagecheckerboard="0"
     inkscape:deskcolor="#d1d1d1"
     inkscape:window-maximized="1">
    <sodipodi:guide
       orientation="vertical"
       position="3.951518,-14.403158"
       id="guide3573"
       inkscape:locked="false" />
    <sodipodi:guide
       orientation="horizontal"
       position="-10.99123,-11.48331"
       id="guide3579"
       inkscape:locked="false" />
    <sodipodi:guide
       orientation="horizontal"
       position="-10.99123,-8.048196"
       id="guide3886"
       inkscape:locked="false" />
    <sodipodi:guide
       orientation="horizontal"
       position="-10.99123,61.169359"
       id="guide3988"
       inkscape:locked="false" />
    <sodipodi:guide
       orientation="horizontal"
       position="-10.99123,65.806764"
       id="guide4081"
       inkscape:locked="false" />
    <inkscape:grid
       id="GridFromPre046Settings"
       type="xygrid"
       originx="-10.99123"
       originy="-19.359716"
       spacingx="7.5590551"
       spacingy="7.5590551"
       color="#3f3fff"
       empcolor="#3f3fff"
       opacity="0.15"
       empopacity="0.38"
       empspacing="5" />
  </sodipodi:namedview>
  <metadata
     id="metadata7">
    <rdf:RDF>
      <cc:Work
         rdf:about="">
        <dc:format>image/svg+xml</dc:format>
        <dc:type
           rdf:resource="http://purl.org/dc/dcmitype/StillImage" />
      </cc:Work>
    </rdf:RDF>
  </metadata>
  <g
     inkscape:label="Layer 1"
     inkscape:groupmode="layer"
     id="layer1"
     transform="translate(-10.99123,-19.359716)">
    <path
       style="fill:#000000;fill-rule:evenodd;stroke:#000000;stroke-width:0.5;stroke-linejoin:round;stroke-miterlimit:10;stroke-dasharray:none;stroke-opacity:1;marker-end:url(#Arrow1L)"
       d="M 14.942748,60.472441 H 105.82677"
       id="path4406" />
    <g
       inkscape:label=""
       transform="translate(10.99123,61.514261)"
       id="g6794">
      <g
         clip-path="url(#clipPath1918)"
         id="g6792"
         transform="matrix(0.352778,0,0,0.352778,-0.242535,0.10257)">
        <g
           fill="#000000"
           fill-opacity="1"
           id="g6790">
          <g
             id="g6788"
             transform="translate(0,9.8030005)">
            <path
               d="m 10.40625,-6.28125 c 0,-2.375 -1.546875,-3.8125 -3.546875,-3.8125 -3.078125,0 -6.171875,3.296875 -6.171875,6.609375 0,2.25 1.5,3.78125 3.578125,3.78125 3,0 6.140625,-3.140625 6.140625,-6.578125 z m -6.0625,6.25 c -1.171875,0 -2.421875,-0.859375 -2.421875,-3.09375 0,-1.3125 0.46875,-3.4375 1.65625,-4.875 1.046875,-1.265625 2.25,-1.78125 3.203125,-1.78125 1.265625,0 2.484375,0.921875 2.484375,2.984375 0,1.28125 -0.546875,3.265625 -1.5,4.625 C 6.71875,-0.703125 5.40625,-0.03125 4.34375,-0.03125 Z m 0,0"
               id="path6786" />
          </g>
        </g>
      </g>
    </g>
    <path
       style="fill:none;fill-opacity:1;fill-rule:evenodd;stroke:#000000;stroke-width:0.5;stroke-dasharray:none;stroke-opacity:1"
       id="path7199"
       sodipodi:type="arc"
       sodipodi:cx="15.11811"
       sodipodi:cy="60.472439"
       sodipodi:rx="22.677164"
       sodipodi:ry="22.677164"
       sodipodi:start="5.8290767"
       sodipodi:end="0.0051639834"
       sodipodi:open="true"
       sodipodi:arc-type="arc"
       d="m 35.496998,50.524841 a 22.677164,22.677164 0 0 1 2.297973,10.064702" />
    <g
       inkscape:label=""
       transform="translate(39.169322,53.858043)"
       id="g7631">
      <g
         fill="#000000"
         fill-opacity="1"
         id="g12"
         transform="matrix(0.352778,0,0,0.352778,-0.20395,0.0461256)">
        <g
           id="use10"
           transform="translate(0,9.9630003)">
          <path
             d="m 6.359375,-7.21875 c 0,-1.453125 -0.46875,-2.875 -1.640625,-2.875 -2,0 -4.140625,4.203125 -4.140625,7.359375 0,0.65625 0.140625,2.875 1.640625,2.875 1.953125,0 4.140625,-4.09375 4.140625,-7.359375 z M 2.015625,-5.1875 C 2.21875,-6.03125 2.53125,-7.25 3.09375,-8.265625 3.578125,-9.125 4.078125,-9.8125 4.703125,-9.8125 5.171875,-9.8125 5.5,-9.40625 5.5,-8.03125 5.5,-7.515625 5.453125,-6.796875 5.03125,-5.1875 Z M 4.9375,-4.765625 c -0.359375,1.40625 -0.65625,2.3125 -1.171875,3.21875 -0.421875,0.734375 -0.921875,1.40625 -1.53125,1.40625 -0.4375,0 -0.796875,-0.34375 -0.796875,-1.765625 0,-0.9375 0.21875,-1.90625 0.453125,-2.859375 z m 0,0"
             id="path18" />
        </g>
      </g>
    </g>
    <path
       id="path8180"
       style="fill-rule:evenodd;stroke:#000000;stroke-width:0.265"
       d="m 77.500404,30.236221 a 1.9098583,1.9098583 0 0 1 -1.909858,1.909859 1.9098583,1.9098583 0 0 1 -1.909859,-1.909859 1.9098583,1.9098583 0 0 1 1.909859,-1.909858 1.9098583,1.9098583 0 0 1 1.909858,1.909858 z" />
    <path
       style="fill:#000000;fill-opacity:1;fill-rule:evenodd;stroke:#000000;stroke-width:0.5;stroke-linejoin:round;stroke-miterlimit:10;stroke-dasharray:none;stroke-opacity:1"
       d="M 15.11811,60.472441 75.59055,30.23622"
       id="path8920" />
    <path
       style="fill:#000000;fill-opacity:1;fill-rule:evenodd;stroke:#000000;stroke-width:0.5;stroke-linejoin:round;stroke-miterlimit:10;stroke-dasharray:none;stroke-opacity:1;marker-end:url(#marker9096)"
       d="m 75.59055,30.23622 7.559056,-3.779528"
       id="path8922" />
    <path
       style="fill:#000000;fill-opacity:1;fill-rule:evenodd;stroke:#000000;stroke-width:0.5;stroke-linejoin:round;stroke-miterlimit:10;stroke-dasharray:none;stroke-opacity:1;marker-end:url(#marker9036)"
       d="M 75.718997,30.300443 72.502105,23.866661"
       id="path8924" />
    <g
       inkscape:label=""
       transform="translate(102.73557,56.085723)"
       id="g9607">
      <g
         clip-path="url(#clipPath4476)"
         id="g17"
         transform="matrix(0.352778,0,0,0.352778,-0.143316,0.0533135)">
        <g
           fill="#000000"
           fill-opacity="1"
           id="g15">
          <g
             id="use13"
             transform="translate(0,6.177)">
            <path
               d="m 6.796875,-5.859375 c -0.453125,0.09375 -0.625,0.4375 -0.625,0.703125 0,0.34375 0.265625,0.46875 0.46875,0.46875 0.4375,0 0.734375,-0.375 0.734375,-0.765625 0,-0.59375 -0.6875,-0.875 -1.296875,-0.875 -0.875,0 -1.359375,0.859375 -1.484375,1.140625 C 4.265625,-6.265625 3.375,-6.328125 3.109375,-6.328125 1.65625,-6.328125 0.875,-4.453125 0.875,-4.125 0.875,-4.078125 0.9375,-4 1.03125,-4 1.140625,-4 1.171875,-4.09375 1.203125,-4.140625 1.6875,-5.734375 2.65625,-6.03125 3.0625,-6.03125 c 0.65625,0 0.78125,0.59375 0.78125,0.9375 0,0.3125 -0.078125,0.640625 -0.265625,1.328125 l -0.484375,1.96875 c -0.203125,0.859375 -0.625,1.65625 -1.390625,1.65625 -0.0625,0 -0.421875,0 -0.734375,-0.1875 0.515625,-0.109375 0.640625,-0.53125 0.640625,-0.703125 0,-0.28125 -0.21875,-0.453125 -0.484375,-0.453125 -0.34375,0 -0.71875,0.296875 -0.71875,0.75 0,0.609375 0.671875,0.875 1.28125,0.875 0.6875,0 1.1875,-0.546875 1.484375,-1.125 0.234375,0.84375 0.9375,1.125 1.46875,1.125 1.46875,0 2.25,-1.875 2.25,-2.1875 0,-0.078125 -0.0625,-0.140625 -0.15625,-0.140625 -0.125,0 -0.140625,0.078125 -0.171875,0.1875 -0.390625,1.265625 -1.234375,1.859375 -1.875,1.859375 -0.5,0 -0.765625,-0.375 -0.765625,-0.96875 0,-0.3125 0.046875,-0.546875 0.28125,-1.484375 l 0.5,-1.953125 C 4.921875,-5.40625 5.40625,-6.03125 6.0625,-6.03125 c 0.03125,0 0.4375,0 0.734375,0.171875 z m 0,0"
               id="path23" />
          </g>
        </g>
      </g>
    </g>
    <g
       inkscape:label=""
       transform="translate(74.43597,19.359716)"
       id="g10508">
      <g
         clip-path="url(#clipPath5928)"
         id="g24"
         transform="matrix(0.352778,0,0,0.352778,-0.20395,-0.00313086)">
        <g
           fill="#000000"
           fill-opacity="1"
           id="g22">
          <g
             id="use20"
             transform="translate(1.127,9.9619999)">
            <path
               d="M 3.515625,-9.953125 1.640625,-8 1.859375,-7.78125 3.5,-9.265625 5.15625,-7.78125 5.375,-8 Z m 0,0"
               id="path36" />
          </g>
        </g>
      </g>
      <g
         clip-path="url(#clipPath9359)"
         id="g30"
         transform="matrix(0.352778,0,0,0.352778,-0.20395,-0.00313086)">
        <g
           fill="#000000"
           fill-opacity="1"
           id="g28">
          <g
             id="use26"
             transform="translate(0,13.748)">
            <path
               d="m 6.359375,-7.21875 c 0,-1.453125 -0.46875,-2.875 -1.640625,-2.875 -2,0 -4.140625,4.203125 -4.140625,7.359375 0,0.65625 0.140625,2.875 1.640625,2.875 1.953125,0 4.140625,-4.09375 4.140625,-7.359375 z M 2.015625,-5.1875 C 2.21875,-6.03125 2.53125,-7.25 3.09375,-8.265625 3.578125,-9.125 4.078125,-9.8125 4.703125,-9.8125 5.171875,-9.8125 5.5,-9.40625 5.5,-8.03125 5.5,-7.515625 5.453125,-6.796875 5.03125,-5.1875 Z M 4.9375,-4.765625 c -0.359375,1.40625 -0.65625,2.3125 -1.171875,3.21875 -0.421875,0.734375 -0.921875,1.40625 -1.53125,1.40625 -0.4375,0 -0.796875,-0.34375 -0.796875,-1.765625 0,-0.9375 0.21875,-1.90625 0.453125,-2.859375 z m 0,0"
               id="path40" />
          </g>
        </g>
      </g>
    </g>
    <g
       inkscape:label=""
       transform="translate(60.017,45)"
       id="g10687">
      <g
         clip-path="url(#clipPath2504)"
         id="g10677"
         transform="matrix(0.352778,0,0,0.352778,20.015943,-15.823091)">
        <g
           fill="#000000"
           fill-opacity="1"
           id="g10675">
          <g
             id="g10673"
             transform="translate(0.62900001,9.9630003)">
            <path
               d="M 3.515625,-9.953125 1.640625,-8 1.859375,-7.78125 3.5,-9.265625 5.15625,-7.78125 5.375,-8 Z m 0,0"
               id="path10671" />
          </g>
        </g>
      </g>
      <g
         clip-path="url(#clipPath5839)"
         id="g10685"
         transform="matrix(0.352778,0,0,0.352778,20.015943,-15.823091)">
        <g
           fill="#000000"
           fill-opacity="1"
           id="g10683">
          <g
             id="g10681"
             transform="translate(0,9.9630003)">
            <path
               d="M 5.578125,-5.859375 C 5.140625,-5.78125 4.90625,-5.46875 4.90625,-5.15625 c 0,0.34375 0.265625,0.46875 0.46875,0.46875 0.40625,0 0.734375,-0.34375 0.734375,-0.78125 0,-0.453125 -0.4375,-0.859375 -1.15625,-0.859375 -0.578125,0 -1.234375,0.265625 -1.84375,1.140625 -0.09375,-0.765625 -0.671875,-1.140625 -1.25,-1.140625 -0.546875,0 -0.84375,0.4375 -1.015625,0.75 -0.234375,0.515625 -0.453125,1.375 -0.453125,1.453125 0,0.046875 0.046875,0.125 0.15625,0.125 0.109375,0 0.125,-0.015625 0.21875,-0.34375 0.203125,-0.859375 0.484375,-1.6875 1.0625,-1.6875 0.34375,0 0.4375,0.234375 0.4375,0.65625 0,0.3125 -0.140625,0.875 -0.25,1.3125 L 1.625,-2.515625 c -0.0625,0.28125 -0.21875,0.921875 -0.296875,1.1875 -0.09375,0.359375 -0.25,1.046875 -0.25,1.109375 0,0.203125 0.15625,0.359375 0.375,0.359375 0.15625,0 0.421875,-0.09375 0.515625,-0.390625 0.046875,-0.109375 0.5625,-2.28125 0.65625,-2.609375 0.078125,-0.3125 0.15625,-0.609375 0.234375,-0.921875 0.046875,-0.203125 0.109375,-0.4375 0.15625,-0.625 C 3.0625,-4.53125 3.4375,-5.234375 3.796875,-5.546875 3.96875,-5.703125 4.34375,-6.03125 4.9375,-6.03125 c 0.21875,0 0.453125,0.03125 0.640625,0.171875 z m 0,0"
               id="path10679" />
          </g>
        </g>
      </g>
    </g>
    <g
       inkscape:label=""
       transform="translate(46.72564,38.35432)"
       id="g10882">
      <g
         clip-path="url(#clipPath9524)"
         id="g10880"
         transform="matrix(0.352778,0,0,0.352778,-0.137804,0.0533135)">
        <g
           fill="#000000"
           fill-opacity="1"
           id="g10878">
          <g
             id="g10876"
             transform="translate(0,6.177)">
            <path
               d="M 5.578125,-5.859375 C 5.140625,-5.78125 4.90625,-5.46875 4.90625,-5.15625 c 0,0.34375 0.265625,0.46875 0.46875,0.46875 0.40625,0 0.734375,-0.34375 0.734375,-0.78125 0,-0.453125 -0.4375,-0.859375 -1.15625,-0.859375 -0.578125,0 -1.234375,0.265625 -1.84375,1.140625 -0.09375,-0.765625 -0.671875,-1.140625 -1.25,-1.140625 -0.546875,0 -0.84375,0.4375 -1.015625,0.75 -0.234375,0.515625 -0.453125,1.375 -0.453125,1.453125 0,0.046875 0.046875,0.125 0.15625,0.125 0.109375,0 0.125,-0.015625 0.21875,-0.34375 0.203125,-0.859375 0.484375,-1.6875 1.0625,-1.6875 0.34375,0 0.4375,0.234375 0.4375,0.65625 0,0.3125 -0.140625,0.875 -0.25,1.3125 L 1.625,-2.515625 c -0.0625,0.28125 -0.21875,0.921875 -0.296875,1.1875 -0.09375,0.359375 -0.25,1.046875 -0.25,1.109375 0,0.203125 0.15625,0.359375 0.375,0.359375 0.15625,0 0.421875,-0.09375 0.515625,-0.390625 0.046875,-0.109375 0.5625,-2.28125 0.65625,-2.609375 0.078125,-0.3125 0.15625,-0.609375 0.234375,-0.921875 0.046875,-0.203125 0.109375,-0.4375 0.15625,-0.625 C 3.0625,-4.53125 3.4375,-5.234375 3.796875,-5.546875 3.96875,-5.703125 4.34375,-6.03125 4.9375,-6.03125 c 0.21875,0 0.453125,0.03125 0.640625,0.171875 z m 0,0"
               id="path10874" />
          </g>
        </g>
      </g>
    </g>
    <path
       style="fill:none;fill-opacity:1;fill-rule:evenodd;stroke:#000000;stroke-width:0.5;stroke-linejoin:round;stroke-miterlimit:10;stroke-dasharray:none;stroke-opacity:1;marker-start:url(#marker11408)"
       d="M 53.207158,22.677165 C 83.732987,24.152192 98.845602,52.624443 98.267716,75.59055"
       id="path11330"
       sodipodi:nodetypes="cc" />
  </g>
</svg>
